<svg version="1" xmlns="http://www.w3.org/2000/svg" width="589.333" height="589.333" viewBox="0 0 442.000000 442.000000"><path d="M133.9 72c-33 3.1-61.6 22.7-76.6 52.5-4.6 8.9-6 14.5-18.7 69.5-6.4 27.8-12.8 54.3-14.3 59-2.4 7.7-2.6 10-2.6 24 0 12.7.4 16.9 2.1 23.2 7.1 26 23.7 46.7 47.5 59.3 20.2 10.7 26.6 11.5 91.7 11.4h51.5l-4-2.1c-13.6-7-26.1-25-34.6-49.9-1.8-5.2-3.5-9.7-3.8-10.1-.3-.4-5.8.2-12.1 1.3-21.1 3.8-43 2.5-54-3.1-17.3-8.8-21-28.1-9.8-50.5 4.4-8.6 11.2-18.6 19.1-27.7l6.9-8-3.1-3.6c-15-17.6-23.8-30.6-28.3-42.2-2.8-7.5-3.6-20.3-1.5-26.5 3.4-9.8 12.4-16.8 25.8-20 9.4-2.2 27.3-1.9 41.6.6 6.5 1.2 12.7 2.2 13.7 2.3 1.5.1 2.5-1.8 5.2-9.9 6.9-20.4 17.8-38.2 28.2-46.2l4.4-3.3h-29.4c-16.1 0-30.9-.2-32.8-.4-1.9-.2-7.4 0-12.1.4zM245.9 79.7c4.2 4.3 9.4 10.9 11.7 14.8 4.8 8.3 11.6 23.9 14 32.1.9 3.3 1.7 6 1.8 6.1.1.1 4-.7 8.6-1.7 28.2-6.2 51.5-4.8 65.1 3.9 20.6 13 16 42.5-11.8 74.5-11.6 13.4-11.1 11.4-5.1 18.2 20.2 23 30 44.7 26.9 59.6-5 24.1-33.9 31.6-81.2 21.2-2.5-.6-2.7-.2-6.3 10.1-8.7 25.3-20 41.9-33.6 49.5l-5.5 3.1 43-.4c40.2-.3 43.5-.5 51.3-2.5 27.8-7.3 49.9-24.8 62.5-49.7 4.1-8 8.1-21.3 9.2-30 .4-3.3 5.8-27.2 12-53.1 9.1-38 11.5-49.4 12.4-59.5 1.8-21-.7-35.6-8.9-52.4-11.5-23.5-31.8-41.1-56.8-48.9l-8.3-2.6H238.2l7.7 7.7z"/><path d="M217.1 88.7c-4.3 2.1-11 10.6-16 20.3-4.6 8.8-11.4 27.7-10.2 28.4.5.3 4.4 1.9 8.7 3.5 4.4 1.6 11.6 4.5 16.1 6.4l8.3 3.5 8.7-3.8c4.9-2 11.8-4.8 15.6-6.1 4.7-1.7 6.7-2.9 6.7-4.1 0-.9-1.6-6.1-3.5-11.4-8.2-22.7-20-38.5-28.7-38.4-1.3 0-3.8.8-5.7 1.7zM117.7 147.4c-10.1 2.9-12.6 6.6-10.8 15.6 1.4 7.2 6.8 17.7 13.9 27.2 6 8.1 13.8 16.8 15 16.8.4 0 4.5-3.2 9.2-7.1 4.7-3.9 10.4-8.4 12.7-10 3.9-2.7 4.2-3.3 4.8-8.6.4-3.2 1.5-11.4 2.6-18.2 1.1-6.8 1.8-12.5 1.7-12.7-.2-.1-4.1-1-8.8-1.9-11.6-2.3-34-2.9-40.3-1.1zM300 146.6c-14.8 2.5-21.2 3.9-21.5 4.5-.3.4.4 5.8 1.4 12.1 1 6.2 2.2 13.8 2.5 16.8.6 4.9 1.1 5.8 4.4 8 2 1.4 8.4 6.4 14.3 11.2l10.7 8.7 5.9-6.7c18.2-20.5 27-39.8 21.9-47.8-3.3-4.9-9.6-6.8-24.1-7-7.1-.1-14.1 0-15.5.2zM184.7 160.2c-.3 2.4-.9 6.3-1.3 8.6l-.7 4.4 8.4-5.2c4.6-2.9 8.8-5.6 9.2-6 .7-.6-12.4-6-14.4-6-.4 0-.9 1.9-1.2 4.2zM251.5 159.2c-6.8 2.4-7 2 4.8 8.7l6 3.4-.8-5.8c-1.2-9.7-.8-9.5-10-6.3zM208.5 179.8c-7.7 4.3-17.3 10-21.2 12.5L180 197v47l8.8 5.7c4.8 3.1 14.5 8.8 21.6 12.6l13 7 11-5.6c6.1-3.1 15.4-8.4 20.7-11.7l9.6-5.9.6-9.2c.9-11.7.9-31.2.1-37.2l-.7-4.6-13.1-8c-12.6-7.6-26.7-15.1-28.3-15.1-.5 0-7.1 3.5-14.8 7.8zm25.2 18.7c22.5 11.2 14.3 45.4-10.8 45.5-22.1.1-32.7-26.4-16.7-41.7 7.1-6.9 18.3-8.4 27.5-3.8zM284.5 221c0 6 .4 10 1 10s3.5-2.3 6.5-5l5.5-5-5.5-5c-3-2.7-5.9-5-6.5-5-.6 0-1 4-1 10zM155 216.2l-5.2 4.3 4.8 4.2c2.7 2.4 5.2 4.3 5.6 4.3.5 0 .8-3.8.8-8.5s-.2-8.5-.4-8.5-2.7 1.9-5.6 4.2zM130.7 240.1c-7.5 8.2-16.4 21.6-19.4 29.1-6.8 16.7-1.1 23.5 20.3 24.6 10 .5 31.2-1.8 34.3-3.8 1.1-.6 1-2.5-.2-10.1-.9-5.2-1.9-12.6-2.3-16.4-.4-3.9-.9-7.5-1.3-8.1-.3-.6-5.5-5-11.6-9.9-6-4.8-11.7-9.4-12.6-10.2-1.5-1.2-2.3-.7-7.2 4.8zM299.9 243.2c-6.3 5.1-12.7 10.2-14.2 11.3-2.4 1.8-2.8 3.2-4.7 16.5-1.1 8-2.2 15.4-2.3 16.5-.4 3.3 12.4 5.7 31.8 5.8 14.5.2 16.4 0 20.7-2 2.5-1.1 5.4-3.3 6.3-4.7 5.3-8-4-28.4-21.7-47.9l-4.3-4.7-11.6 9.2zM183.4 270.7c.3 1 .8 3.9 1.1 6.4 1 7.1 1.4 7.4 7.6 5.4 10.1-3.3 10.1-3.1.5-8.6-4.7-2.7-8.8-4.9-9.1-4.9-.4 0-.4.8-.1 1.7zM254.2 274.3c-3.9 2.2-7.2 4.4-7.2 4.7 0 .3 2.4 1.4 5.3 2.5 2.8 1 5.7 2 6.3 2.2.7.3 1.6-2.1 2.3-6.3.7-3.6 1.1-6.8.9-6.9-.2-.2-3.6 1.5-7.6 3.8zM217.5 292.4c-4 1.9-20.2 8.1-26.2 10.1-.9.3-.3 3.3 2.3 10.6 8.9 25.6 21.2 41.3 30.8 39.5 8-1.5 18.3-15.6 25.5-34.6 6.4-17.1 7.7-14.6-10.6-21.8-8.7-3.4-16-6.2-16.3-6.1-.3 0-2.7 1.1-5.5 2.3z"/></svg>